<svg width="1440" height="430" viewBox="0 0 1440 430" fill="none" xmlns="http://www.w3.org/2000/svg">
<g id="Wave">
<path id="shadow-wave" d="M122.1 89.2013C43.4132 28.0935 7.91386 50.3245 0 69.0785V364.351H1440V0.907011C1432.73 0.222559 1406.47 -0.735674 1359.57 0.907011C1300.94 2.96037 1341.64 108.914 1252.97 167.64C1164.31 226.366 973.89 142.589 865.357 89.2013C756.824 35.8141 534.912 277.699 424.926 279.342C314.939 280.985 220.458 165.586 122.1 89.2013Z" fill="#424242"/>
<path id="white-wave" d="M122.1 154.85C43.4132 93.7423 7.91386 115.973 0 134.727V430H1440V66.5559C1432.73 65.8714 1406.47 64.9132 1359.57 66.5559C1300.94 68.6092 1341.64 174.562 1252.97 233.288C1164.31 292.014 973.89 208.237 865.357 154.85C756.824 101.463 534.912 343.348 424.926 344.991C314.939 346.634 220.458 231.235 122.1 154.85Z" fill="#FAFAFA"/>
</g>
</svg>
